<svg width="20" height="20" viewBox="0 0 20 20" fill="none" xmlns="http://www.w3.org/2000/svg">
<g clip-path="url(#clip0_1175_103)">
<path d="M10.7831 10L15.3887 5.39447C15.4797 5.28819 15.5272 5.15149 15.5218 5.01167C15.5164 4.87185 15.4585 4.73921 15.3595 4.64027C15.2606 4.54133 15.128 4.48337 14.9881 4.47797C14.8483 4.47257 14.7116 4.52013 14.6053 4.61114L9.99977 9.2167L5.39421 4.60558C5.2896 4.50097 5.14771 4.4422 4.99977 4.4422C4.85182 4.4422 4.70994 4.50097 4.60532 4.60558C4.50071 4.7102 4.44194 4.85208 4.44194 5.00003C4.44194 5.14797 4.50071 5.28986 4.60532 5.39447L9.21643 10L4.60532 14.6056C4.54717 14.6554 4.49993 14.7167 4.46659 14.7856C4.43324 14.8545 4.4145 14.9296 4.41155 15.0061C4.40859 15.0826 4.42148 15.1589 4.44941 15.2302C4.47734 15.3015 4.51971 15.3662 4.57385 15.4204C4.62799 15.4745 4.69274 15.5169 4.76403 15.5448C4.83532 15.5728 4.91162 15.5856 4.98813 15.5827C5.06464 15.5797 5.13972 15.561 5.20864 15.5277C5.27757 15.4943 5.33885 15.4471 5.38866 15.3889L9.99977 10.7834L14.6053 15.3889C14.7116 15.4799 14.8483 15.5275 14.9881 15.5221C15.128 15.5167 15.2606 15.4587 15.3595 15.3598C15.4585 15.2608 15.5164 15.1282 15.5218 14.9884C15.5272 14.8486 15.4797 14.7119 15.3887 14.6056L10.7831 10Z" fill="#131313"/>
</g>
<defs>
<clipPath id="clip0_1175_103">
<rect width="20" height="20" fill="white"/>
</clipPath>
</defs>
</svg>
